<mxfile host="Electron" modified="2024-03-17T18:04:18.525Z" agent="Mozilla/5.0 (Windows NT 10.0; Win64; x64) AppleWebKit/537.36 (KHTML, like Gecko) draw.io/22.1.2 Chrome/114.0.5735.289 Electron/25.9.4 Safari/537.36" etag="7q5sNlGcg1tLrHYQf-hN" version="22.1.2" type="device" pages="7">
  <diagram name="enq" id="Xo7cs3B-3TTWdJO4C94_">
    <mxGraphModel dx="2267" dy="699" grid="1" gridSize="10" guides="1" tooltips="1" connect="1" arrows="1" fold="1" page="1" pageScale="1" pageWidth="1169" pageHeight="827" math="1" shadow="0">
      <root>
        <mxCell id="0" />
        <mxCell id="1" parent="0" />
        <mxCell id="KOwiv-1DZXgnvpXq_Qld-1" value="&lt;font style=&quot;font-size: 100px;&quot;&gt;\(\mathcal{enq}\)&lt;/font&gt;" style="text;html=1;strokeColor=none;fillColor=none;align=center;verticalAlign=middle;whiteSpace=wrap;rounded=0;fontFamily=Palatino;fontSource=https%3A%2F%2Ffonts.googleapis.com%2Fcss%3Ffamily%3DPalatino;fontSize=100;rotation=0;" parent="1" vertex="1">
          <mxGeometry x="-720" y="250" width="280" height="280" as="geometry" />
        </mxCell>
      </root>
    </mxGraphModel>
  </diagram>
  <diagram id="MO5Bj1omAWbNOT_e4JQf" name="templates">
    <mxGraphModel dx="2267" dy="699" grid="1" gridSize="10" guides="1" tooltips="1" connect="1" arrows="1" fold="1" page="1" pageScale="1" pageWidth="1169" pageHeight="827" math="1" shadow="0">
      <root>
        <mxCell id="0" />
        <mxCell id="1" parent="0" />
        <mxCell id="51hB057oXmhah4YbQCvj-1" value="&lt;font style=&quot;font-size: 35px;&quot;&gt;\(\mathcal{the}\)&lt;br&gt;templates&lt;/font&gt;" style="text;html=1;strokeColor=none;fillColor=none;align=center;verticalAlign=middle;whiteSpace=wrap;rounded=0;fontFamily=Palatino;fontSource=https%3A%2F%2Ffonts.googleapis.com%2Fcss%3Ffamily%3DPalatino;fontSize=35;rotation=0;fontStyle=1" vertex="1" parent="1">
          <mxGeometry x="-720" y="194" width="280" height="280" as="geometry" />
        </mxCell>
      </root>
    </mxGraphModel>
  </diagram>
  <diagram id="GJ3aQXT7mNng6GKAzH5V" name="ant">
    <mxGraphModel dx="2267" dy="753" grid="1" gridSize="10" guides="1" tooltips="1" connect="1" arrows="1" fold="1" page="1" pageScale="1" pageWidth="1169" pageHeight="827" math="1" shadow="0">
      <root>
        <mxCell id="0" />
        <mxCell id="1" parent="0" />
        <mxCell id="avMD_QJQ5jXVZJ_-mL0z-1" value="&lt;font style=&quot;font-size: 100px;&quot;&gt;\(\mathcal{ant}\)&lt;/font&gt;" style="text;html=1;strokeColor=none;fillColor=none;align=center;verticalAlign=middle;whiteSpace=wrap;rounded=0;fontFamily=Palatino;fontSource=https%3A%2F%2Ffonts.googleapis.com%2Fcss%3Ffamily%3DPalatino;fontSize=100;rotation=0;" parent="1" vertex="1">
          <mxGeometry x="-700" y="210" width="280" height="280" as="geometry" />
        </mxCell>
      </root>
    </mxGraphModel>
  </diagram>
  <diagram id="-KhPBeNyMLje8WYhg7KZ" name="dev">
    <mxGraphModel dx="2267" dy="753" grid="1" gridSize="10" guides="1" tooltips="1" connect="1" arrows="1" fold="1" page="1" pageScale="1" pageWidth="1169" pageHeight="827" math="1" shadow="0">
      <root>
        <mxCell id="0" />
        <mxCell id="1" parent="0" />
        <mxCell id="-ehG5vAEaPbAaN9UUOwk-1" value="&lt;font style=&quot;font-size: 100px;&quot;&gt;\(\mathcal{dev}\)&lt;/font&gt;" style="text;html=1;strokeColor=none;fillColor=none;align=center;verticalAlign=middle;whiteSpace=wrap;rounded=0;fontFamily=Palatino;fontSource=https%3A%2F%2Ffonts.googleapis.com%2Fcss%3Ffamily%3DPalatino;fontSize=100;rotation=0;" parent="1" vertex="1">
          <mxGeometry x="-730" y="240" width="280" height="280" as="geometry" />
        </mxCell>
      </root>
    </mxGraphModel>
  </diagram>
  <diagram id="t_rh4d-n9y8-zb83NVD4" name="bullet">
    <mxGraphModel dx="1098" dy="753" grid="1" gridSize="10" guides="1" tooltips="1" connect="1" arrows="1" fold="1" page="1" pageScale="1" pageWidth="1169" pageHeight="827" math="1" shadow="0">
      <root>
        <mxCell id="0" />
        <mxCell id="1" parent="0" />
        <mxCell id="be_zBRYI5xRpaqh2kKM1-1" value="&lt;font style=&quot;font-size: 200px;&quot;&gt;\(\bullet\)&lt;/font&gt;" style="text;html=1;strokeColor=none;fillColor=none;align=center;verticalAlign=middle;whiteSpace=wrap;rounded=0;fontFamily=Palatino;fontSource=https%3A%2F%2Ffonts.googleapis.com%2Fcss%3Ffamily%3DPalatino;fontSize=200;rotation=0;" parent="1" vertex="1">
          <mxGeometry x="-1850" y="240" width="280" height="280" relative="1" as="geometry">
            <mxPoint x="445" y="230" as="offset" />
          </mxGeometry>
        </mxCell>
      </root>
    </mxGraphModel>
  </diagram>
  <diagram id="27W69_ZQFKTxKalu8Qzn" name="unit">
    <mxGraphModel dx="2267" dy="753" grid="1" gridSize="10" guides="1" tooltips="1" connect="1" arrows="1" fold="1" page="1" pageScale="1" pageWidth="1169" pageHeight="827" math="1" shadow="0">
      <root>
        <mxCell id="0" />
        <mxCell id="1" parent="0" />
        <mxCell id="LKn_9FtaHsDHPrw5y1IC-1" value="&lt;b style=&quot;font-size: 18px;&quot;&gt;&lt;font style=&quot;font-size: 18px;&quot;&gt;&lt;span style=&quot;font-size: 18px;&quot;&gt;&lt;font face=&quot;Roboto&quot; style=&quot;font-size: 18px;&quot;&gt;the&lt;/font&gt;&lt;/span&gt;&amp;nbsp;&lt;br style=&quot;font-size: 18px;&quot;&gt;&lt;/font&gt;&lt;font style=&quot;font-size: 18px;&quot; face=&quot;Roboto&quot;&gt;artificial &lt;br style=&quot;font-size: 18px;&quot;&gt;intelligence &lt;br style=&quot;font-size: 18px;&quot;&gt;unit&lt;/font&gt;&lt;/b&gt;" style="text;html=1;strokeColor=none;fillColor=none;align=center;verticalAlign=middle;whiteSpace=wrap;rounded=0;fontFamily=Palatino;fontSource=https%3A%2F%2Ffonts.googleapis.com%2Fcss%3Ffamily%3DPalatino;fontSize=18;rotation=0;spacing=2;" vertex="1" parent="1">
          <mxGeometry x="-730" y="240" width="280" height="280" as="geometry" />
        </mxCell>
      </root>
    </mxGraphModel>
  </diagram>
  <diagram id="zbQJpx1w0J5Vi5aiHNBZ" name="references">
    <mxGraphModel dx="2267" dy="699" grid="1" gridSize="10" guides="1" tooltips="1" connect="1" arrows="1" fold="1" page="1" pageScale="1" pageWidth="1169" pageHeight="827" math="1" shadow="0">
      <root>
        <mxCell id="0" />
        <mxCell id="1" parent="0" />
        <mxCell id="tfKgeCGhEf-yjaX5qjDY-1" value="&lt;font style=&quot;font-size: 35px;&quot;&gt;\(\mathcal{the}\)&lt;br&gt;references&lt;/font&gt;" style="text;html=1;strokeColor=none;fillColor=none;align=center;verticalAlign=middle;whiteSpace=wrap;rounded=0;fontFamily=Palatino;fontSource=https%3A%2F%2Ffonts.googleapis.com%2Fcss%3Ffamily%3DPalatino;fontSize=35;rotation=0;fontStyle=1" vertex="1" parent="1">
          <mxGeometry x="-720" y="280" width="280" height="280" as="geometry" />
        </mxCell>
      </root>
    </mxGraphModel>
  </diagram>
</mxfile>
